<svg width="107" height="17" viewBox="0 0 107 17" fill="none" xmlns="http://www.w3.org/2000/svg">
<path d="M0.880682 13V1.36364H3.69318V10.7159H8.53409V13H0.880682ZM14.0696 13.1648C13.1567 13.1648 12.3688 12.9848 11.706 12.625C11.0469 12.2614 10.5393 11.7443 10.1832 11.0739C9.83097 10.3996 9.65483 9.59848 9.65483 8.67045C9.65483 7.76894 9.83286 6.98106 10.1889 6.30682C10.545 5.62879 11.0469 5.10227 11.6946 4.72727C12.3423 4.34848 13.1056 4.15909 13.9844 4.15909C14.6056 4.15909 15.1738 4.25568 15.6889 4.44886C16.2041 4.64205 16.6491 4.92803 17.0241 5.30682C17.3991 5.68561 17.6908 6.15341 17.8991 6.71023C18.1075 7.26326 18.2116 7.89773 18.2116 8.61364V9.30682H10.6264V7.69318H15.6264C15.6226 7.39773 15.5526 7.13447 15.4162 6.90341C15.2798 6.67235 15.0923 6.49242 14.8537 6.36364C14.6188 6.23106 14.348 6.16477 14.0412 6.16477C13.7306 6.16477 13.4522 6.23485 13.206 6.375C12.9598 6.51136 12.7647 6.69886 12.6207 6.9375C12.4768 7.17235 12.401 7.43939 12.3935 7.73864V9.38068C12.3935 9.73674 12.4635 10.0492 12.6037 10.3182C12.7438 10.5833 12.9427 10.7898 13.2003 10.9375C13.4579 11.0852 13.7647 11.1591 14.1207 11.1591C14.367 11.1591 14.5904 11.125 14.7912 11.0568C14.992 10.9886 15.1643 10.8883 15.3082 10.7557C15.4522 10.6231 15.5601 10.4602 15.6321 10.267L18.1832 10.3409C18.0772 10.9129 17.8442 11.411 17.4844 11.8352C17.1283 12.2557 16.6605 12.5833 16.081 12.8182C15.5014 13.0492 14.831 13.1648 14.0696 13.1648ZM30.1932 5.57955H27.3523C27.3144 5.28788 27.2367 5.02462 27.1193 4.78977C27.0019 4.55492 26.8466 4.35417 26.6534 4.1875C26.4602 4.02083 26.2311 3.89394 25.9659 3.80682C25.7045 3.71591 25.4148 3.67045 25.0966 3.67045C24.5322 3.67045 24.0455 3.80871 23.6364 4.08523C23.2311 4.36174 22.9186 4.76136 22.6989 5.28409C22.483 5.80682 22.375 6.43939 22.375 7.18182C22.375 7.95455 22.4848 8.60227 22.7045 9.125C22.928 9.64394 23.2405 10.036 23.642 10.3011C24.0473 10.5625 24.5265 10.6932 25.0795 10.6932C25.3902 10.6932 25.6723 10.6534 25.9261 10.5739C26.1837 10.4943 26.4091 10.3788 26.6023 10.2273C26.7992 10.072 26.9602 9.88447 27.0852 9.66477C27.214 9.44129 27.303 9.18939 27.3523 8.90909L30.1932 8.92614C30.1439 9.44129 29.9943 9.94886 29.7443 10.4489C29.4981 10.9489 29.1591 11.4053 28.7273 11.8182C28.2955 12.2273 27.7689 12.553 27.1477 12.7955C26.5303 13.0379 25.822 13.1591 25.0227 13.1591C23.9697 13.1591 23.0265 12.928 22.1932 12.4659C21.3636 12 20.7083 11.322 20.2273 10.4318C19.7462 9.54167 19.5057 8.45833 19.5057 7.18182C19.5057 5.90152 19.75 4.81629 20.2386 3.92614C20.7273 3.03598 21.3883 2.35985 22.2216 1.89773C23.0549 1.43561 23.9886 1.20455 25.0227 1.20455C25.7273 1.20455 26.3788 1.30303 26.9773 1.5C27.5758 1.69318 28.1023 1.97727 28.5568 2.35227C29.0114 2.72348 29.3807 3.17992 29.6648 3.72159C29.9489 4.26326 30.125 4.88258 30.1932 5.57955ZM35.8764 13.1648C34.9598 13.1648 34.1719 12.9773 33.5128 12.6023C32.8575 12.2235 32.3518 11.697 31.9957 11.0227C31.6435 10.3447 31.4673 9.55871 31.4673 8.66477C31.4673 7.76705 31.6435 6.98106 31.9957 6.30682C32.3518 5.62879 32.8575 5.10227 33.5128 4.72727C34.1719 4.34848 34.9598 4.15909 35.8764 4.15909C36.7931 4.15909 37.5791 4.34848 38.2344 4.72727C38.8935 5.10227 39.3991 5.62879 39.7514 6.30682C40.1075 6.98106 40.2855 7.76705 40.2855 8.66477C40.2855 9.55871 40.1075 10.3447 39.7514 11.0227C39.3991 11.697 38.8935 12.2235 38.2344 12.6023C37.5791 12.9773 36.7931 13.1648 35.8764 13.1648ZM35.8935 11.0682C36.2268 11.0682 36.509 10.9659 36.7401 10.7614C36.9711 10.5568 37.1473 10.2727 37.2685 9.90909C37.3935 9.54545 37.456 9.125 37.456 8.64773C37.456 8.16288 37.3935 7.73864 37.2685 7.375C37.1473 7.01136 36.9711 6.72727 36.7401 6.52273C36.509 6.31818 36.2268 6.21591 35.8935 6.21591C35.5488 6.21591 35.2571 6.31818 35.0185 6.52273C34.7836 6.72727 34.6037 7.01136 34.4787 7.375C34.3575 7.73864 34.2969 8.16288 34.2969 8.64773C34.2969 9.125 34.3575 9.54545 34.4787 9.90909C34.6037 10.2727 34.7836 10.5568 35.0185 10.7614C35.2571 10.9659 35.5488 11.0682 35.8935 11.0682ZM44.8963 13.125C44.2524 13.125 43.6671 12.9583 43.1406 12.625C42.6141 12.2917 42.1937 11.7917 41.8793 11.125C41.5649 10.4583 41.4077 9.63068 41.4077 8.64205C41.4077 7.61553 41.5705 6.77083 41.8963 6.10795C42.2221 5.44508 42.6482 4.95455 43.1747 4.63636C43.705 4.31818 44.2751 4.15909 44.8849 4.15909C45.3433 4.15909 45.7353 4.23864 46.0611 4.39773C46.3868 4.55303 46.6558 4.75379 46.8679 5C47.08 5.24621 47.241 5.50189 47.3509 5.76705H47.4077V1.36364H50.1861V13H47.4361V11.5852H47.3509C47.2334 11.8542 47.0668 12.1061 46.8509 12.3409C46.6349 12.5758 46.3641 12.7652 46.0384 12.9091C45.7164 13.053 45.3357 13.125 44.8963 13.125ZM45.8622 10.9602C46.1993 10.9602 46.4872 10.8655 46.7259 10.6761C46.9645 10.483 47.1482 10.2121 47.277 9.86364C47.4058 9.51515 47.4702 9.10606 47.4702 8.63636C47.4702 8.15909 47.4058 7.74811 47.277 7.40341C47.152 7.05871 46.9683 6.79356 46.7259 6.60795C46.4872 6.42235 46.1993 6.32955 45.8622 6.32955C45.5175 6.32955 45.2259 6.42424 44.9872 6.61364C44.7486 6.80303 44.5668 7.07008 44.4418 7.41477C44.3205 7.75947 44.2599 8.16667 44.2599 8.63636C44.2599 9.10606 44.3224 9.51515 44.4474 9.86364C44.5724 10.2121 44.7524 10.483 44.9872 10.6761C45.2259 10.8655 45.5175 10.9602 45.8622 10.9602ZM51.9432 13V4.27273H54.7216V13H51.9432ZM53.3352 3.25568C52.9451 3.25568 52.6098 3.12689 52.3295 2.86932C52.0492 2.60795 51.9091 2.29356 51.9091 1.92614C51.9091 1.5625 52.0492 1.25189 52.3295 0.994318C52.6098 0.732954 52.9451 0.602272 53.3352 0.602272C53.7292 0.602272 54.0644 0.732954 54.3409 0.994318C54.6212 1.25189 54.7614 1.5625 54.7614 1.92614C54.7614 2.29356 54.6212 2.60795 54.3409 2.86932C54.0644 3.12689 53.7292 3.25568 53.3352 3.25568ZM59.2685 8.02273V13H56.4901V4.27273H59.1321V5.875H59.2287C59.4219 5.34091 59.7514 4.92235 60.2173 4.61932C60.6832 4.3125 61.2382 4.15909 61.8821 4.15909C62.4957 4.15909 63.0279 4.29735 63.4787 4.57386C63.9332 4.84659 64.2855 5.22917 64.5355 5.72159C64.7893 6.21023 64.9143 6.7822 64.9105 7.4375V13H62.1321V7.98295C62.1359 7.49811 62.0128 7.11932 61.7628 6.84659C61.5166 6.57386 61.1738 6.4375 60.7344 6.4375C60.4427 6.4375 60.1851 6.50189 59.9616 6.63068C59.742 6.75568 59.5715 6.93561 59.4503 7.17045C59.3329 7.4053 59.2723 7.68939 59.2685 8.02273ZM70.6989 16.4545C69.8693 16.4545 69.1591 16.339 68.5682 16.108C67.9773 15.8769 67.5133 15.5606 67.1761 15.1591C66.839 14.7576 66.6364 14.303 66.5682 13.7955L69.1989 13.6477C69.2481 13.8258 69.339 13.9811 69.4716 14.1136C69.608 14.2462 69.7841 14.3485 70 14.4205C70.2197 14.4924 70.4773 14.5284 70.7727 14.5284C71.2386 14.5284 71.6231 14.4148 71.9261 14.1875C72.233 13.964 72.3864 13.572 72.3864 13.0114V11.4773H72.2898C72.1799 11.7462 72.0133 11.9867 71.7898 12.1989C71.5663 12.411 71.2879 12.5777 70.9545 12.6989C70.625 12.8201 70.2462 12.8807 69.8182 12.8807C69.1818 12.8807 68.5985 12.733 68.0682 12.4375C67.5417 12.1383 67.1193 11.6761 66.8011 11.0511C66.4867 10.4223 66.3295 9.61364 66.3295 8.625C66.3295 7.60606 66.4924 6.76705 66.8182 6.10795C67.1439 5.44508 67.5701 4.95455 68.0966 4.63636C68.6269 4.31818 69.197 4.15909 69.8068 4.15909C70.2652 4.15909 70.6572 4.23864 70.983 4.39773C71.3125 4.55303 71.5833 4.75379 71.7955 5C72.0076 5.24621 72.1686 5.50189 72.2784 5.76705H72.358V4.27273H75.125V13.0341C75.125 13.7727 74.9394 14.3958 74.5682 14.9034C74.197 15.411 73.678 15.7955 73.0114 16.0568C72.3447 16.322 71.5739 16.4545 70.6989 16.4545ZM70.7841 10.858C71.1212 10.858 71.4091 10.7689 71.6477 10.5909C71.8864 10.4129 72.0701 10.1572 72.1989 9.82386C72.3277 9.49053 72.392 9.09091 72.392 8.625C72.392 8.15152 72.3277 7.74432 72.1989 7.40341C72.0739 7.05871 71.8902 6.79356 71.6477 6.60795C71.4091 6.42235 71.1212 6.32955 70.7841 6.32955C70.4394 6.32955 70.1477 6.42424 69.9091 6.61364C69.6705 6.80303 69.4886 7.07008 69.3636 7.41477C69.2424 7.75568 69.1818 8.15909 69.1818 8.625C69.1818 9.09091 69.2443 9.49053 69.3693 9.82386C69.4943 10.1572 69.6742 10.4129 69.9091 10.5909C70.1477 10.7689 70.4394 10.858 70.7841 10.858ZM81.1974 13H76.8963V1.36364H81.1918C82.3774 1.36364 83.3982 1.59659 84.2543 2.0625C85.1141 2.52462 85.777 3.19129 86.2429 4.0625C86.7088 4.92992 86.9418 5.9678 86.9418 7.17614C86.9418 8.38826 86.7088 9.42992 86.2429 10.3011C85.7808 11.1723 85.1198 11.8409 84.2599 12.3068C83.4001 12.7689 82.3793 13 81.1974 13ZM79.7088 10.6023H81.0895C81.741 10.6023 82.2921 10.4924 82.7429 10.2727C83.1974 10.0492 83.5402 9.6875 83.7713 9.1875C84.0062 8.68371 84.1236 8.01326 84.1236 7.17614C84.1236 6.33902 84.0062 5.67235 83.7713 5.17614C83.5365 4.67614 83.1899 4.31629 82.7315 4.09659C82.277 3.87311 81.7164 3.76136 81.0497 3.76136H79.7088V10.6023ZM92.6634 13.1648C91.7505 13.1648 90.9626 12.9848 90.2997 12.625C89.6406 12.2614 89.133 11.7443 88.777 11.0739C88.4247 10.3996 88.2486 9.59848 88.2486 8.67045C88.2486 7.76894 88.4266 6.98106 88.7827 6.30682C89.1387 5.62879 89.6406 5.10227 90.2884 4.72727C90.9361 4.34848 91.6993 4.15909 92.5781 4.15909C93.1993 4.15909 93.7675 4.25568 94.2827 4.44886C94.7978 4.64205 95.2429 4.92803 95.6179 5.30682C95.9929 5.68561 96.2846 6.15341 96.4929 6.71023C96.7012 7.26326 96.8054 7.89773 96.8054 8.61364V9.30682H89.2202V7.69318H94.2202C94.2164 7.39773 94.1463 7.13447 94.0099 6.90341C93.8736 6.67235 93.6861 6.49242 93.4474 6.36364C93.2126 6.23106 92.9418 6.16477 92.6349 6.16477C92.3243 6.16477 92.0459 6.23485 91.7997 6.375C91.5535 6.51136 91.3584 6.69886 91.2145 6.9375C91.0705 7.17235 90.9948 7.43939 90.9872 7.73864V9.38068C90.9872 9.73674 91.0573 10.0492 91.1974 10.3182C91.3376 10.5833 91.5365 10.7898 91.794 10.9375C92.0516 11.0852 92.3584 11.1591 92.7145 11.1591C92.9607 11.1591 93.1842 11.125 93.3849 11.0568C93.5857 10.9886 93.758 10.8883 93.902 10.7557C94.0459 10.6231 94.1539 10.4602 94.2259 10.267L96.777 10.3409C96.6709 10.9129 96.438 11.411 96.0781 11.8352C95.7221 12.2557 95.2543 12.5833 94.6747 12.8182C94.0952 13.0492 93.4247 13.1648 92.6634 13.1648ZM106.456 4.27273L103.462 13H100.28L97.2912 4.27273H100.217L101.825 10.2841H101.916L103.53 4.27273H106.456Z" fill="white"/>
</svg>
